<svg xmlns="http://www.w3.org/2000/svg" height="56" width="42" viewBox="0 0 42 56"><path d="m0 0h42v56h-42z" fill="none"/><path d="m3.0183 20.4368c1.0112-2.3555 2.4111-4.4275 4.1997-6.2165 1.7875-1.7889 3.859-3.19 6.2133-4.2018 2.3544-1.0127 4.8741-1.5186 7.5594-1.5186.6109 0 1.1326.2165 1.5653.6494s.649.9549.649 1.5661-.2163 1.1332-.649 1.5661-.9545.6494-1.5653.6494c-2.0744 0-4.0215.3913-5.8413 1.1748-1.8198.7826-3.4204 1.8653-4.8007 3.2468-1.3813 1.3815-2.463 2.9824-3.2452 4.8031-.7832 1.8208-1.1747 3.7689-1.1747 5.8443s.3916 4.0235 1.1747 5.8443c.7822 1.8208 1.8639 3.4221 3.2452 4.8031 1.3803 1.382 2.9809 2.4643 4.8007 3.2468 1.8198.7835 3.767 1.1748 5.8413 1.1748 2.0871 0 4.0371-.3913 5.8511-1.1748 1.813-.7826 3.4136-1.8648 4.8007-3.2468 1.3872-1.381 2.4689-2.9824 3.2452-4.8031.7763-1.8208 1.1649-3.7689 1.1649-5.8443 0-1.859-.3152-3.6161-.9457-5.2713-.6295-1.6552-1.5115-3.1479-2.6431-4.4789-1.1336-1.3301-2.4601-2.4378-3.9804-3.3232-1.5213-.8844-3.1659-1.4799-4.9348-1.7855.6618-.6748.9926-1.4833.9926-2.4256 0-.3692-.0578-.7223-.1713-1.0602-.1155-.3369-.2682-.6459-.4581-.9261 2.3406.3438 4.5168 1.0788 6.5276 2.2062 2.0107 1.1263 3.7709 2.5558 5.2784 4.2875 1.5085 1.7316 2.6823 3.6832 3.5222 5.8536.8399 2.1714 1.2599 4.4789 1.2599 6.9236 0 2.6866-.5061 5.2076-1.5174 7.5632-1.0122 2.3555-2.4121 4.428-4.1997 6.2165-1.7885 1.7889-3.8629 3.19-6.2231 4.2018-2.3612 1.0127-4.8839 1.5186-7.5692 1.5186s-5.205-.5059-7.5594-1.5186c-2.3544-1.0118-4.4258-2.4128-6.2133-4.2018-1.7885-1.7884-3.1884-3.8609-4.1997-6.2165-1.0122-2.3555-1.5183-4.8766-1.5183-7.5632s.5061-5.2076 1.5183-7.5632zm5.3636 2.2439c.7068-1.6484 1.6867-3.0999 2.9398-4.3546 1.254-1.2537 2.7077-2.2341 4.3622-2.9412 1.6544-.7062 3.4234-1.0597 5.3068-1.0597.6109 0 1.1297.2135 1.5555.6396.4268.427.6392.9456.6392 1.5568s-.2124 1.1332-.6392 1.5661c-.4258.4329-.9447.6494-1.5555.6494-1.6926 0-3.2423.4172-4.648 1.2512-1.4067.834-2.5266 1.951-3.3597 3.3516-.8341 1.4006-1.2511 2.954-1.2511 4.6601s.417 3.2595 1.2511 4.6601c.8331 1.4006 1.953 2.5181 3.3597 3.3516 1.4058.8345 2.9554 1.2512 4.648 1.2512 1.7053 0 3.2579-.4167 4.6578-1.2512 1.3999-.8335 2.5169-1.951 3.3499-3.3516.8341-1.4006 1.2511-2.954 1.2511-4.6601 0-1.4261-.2937-2.7502-.8791-3.9726s-1.393-2.2664-2.4239-3.1322-2.1948-1.477-3.4929-1.8335c.3299-.3183.5913-.7003.7822-1.1459s.2868-.9104.2868-1.3942c0-.7003-.1791-1.3306-.5345-1.8908 2.0352.4584 3.859 1.3271 5.4684 2.6072 1.6104 1.2791 2.883 2.8487 3.8179 4.7076.9359 1.859 1.4038 3.8771 1.4038 6.0544 0 1.8844-.3534 3.6543-1.0602 5.3095-.7058 1.6552-1.6857 3.1102-2.9398 4.3643-1.253 1.2542-2.7077 2.2341-4.3622 2.9412-1.6544.7062-3.4292 1.0597-5.3254 1.0597-1.8835 0-3.6524-.3536-5.3068-1.0597-1.6544-.7071-3.1081-1.6871-4.3622-2.9412-1.253-1.2542-2.233-2.7091-2.9398-4.3643-.7058-1.6552-1.0592-3.4251-1.0592-5.3095 0-1.8972.3534-3.6699 1.0592-5.3193zm5.7748 1.3276c.7127-1.1969 1.6671-2.1484 2.8634-2.8555 1.1963-.7062 2.5198-1.0597 3.9706-1.0597.6109 0 1.1297.2135 1.5555.6396.4268.427.6392.9456.6392 1.5568s-.2124 1.1332-.6392 1.5661c-.4258.4329-.9447.6494-1.5555.6494-.6363 0-1.2188.1562-1.7464.4677-.5286.3124-.9515.7326-1.2697 1.2605-.3182.5289-.4767 1.1175-.4767 1.7669 0 .6366.1586 1.2223.4767 1.7571s.7411.9584 1.2697 1.2703c.5276.3119 1.1101.4677 1.7464.4677.649 0 1.2374-.1557 1.766-.4677.5276-.3119.9476-.7356 1.2599-1.2703.3113-.5348.467-1.1205.467-1.7571 0-.5857-.1361-1.1234-.4102-1.6141-.2731-.4897-.6392-.8815-1.0974-1.1743.4709-.331.8458-.7478 1.1258-1.2507s.4209-1.0602.4209-1.6714c0-.2674-.0323-.5255-.0959-.7733-.0636-.2488-.1468-.4809-.2487-.6974.929.3947 1.7474.9486 2.4532 1.6616.7068.713 1.2628 1.5441 1.6701 2.4922.4072.9491.6109 1.9579.6109 3.0274 0 1.4515-.3563 2.7757-1.069 3.9726s-1.6671 2.1518-2.8624 2.8648c-1.1972.713-2.5266 1.0695-3.9902 1.0695-1.4508 0-2.7743-.3565-3.9706-1.0695s-2.1507-1.668-2.8634-2.8648c-.7127-1.1969-1.069-2.5211-1.069-3.9726 0-1.4643.3563-2.7948 1.069-3.9917z"/></svg>