<svg xmlns="http://www.w3.org/2000/svg" height="56" width="16" viewBox="0 0 16 56" ><path d="m0 0h16v56h-16z" fill="none"/><path d="m1.125 11.2353h.625c.6904 0 1.25.553 1.25 1.2353v19.7647c0 2.7177 2.25 4.9412 5 4.9412s5-2.2235 5-4.9412v-19.7647c0-.6823 0-1.2353 1.25-1.2353h.625c.3438 0 .625-.278.625-.6176s-.2812-.6176-.625-.6176h-13.75c-.3438 0-.625.2779-.625.6176s.2812.6176.625.6176zm6.875 6.1765c.6904 0 1.25.553 1.25 1.2353s-.5596 1.2353-1.25 1.2353-1.25-.5531-1.25-1.2353.5596-1.2353 1.25-1.2353zm0 4.9412c.6904 0 1.25.553 1.25 1.2353s-.5596 1.2353-1.25 1.2353-1.25-.5531-1.25-1.2353.5596-1.2353 1.25-1.2353zm0 4.9412c.6904 0 1.25.553 1.25 1.2353s-.5596 1.2353-1.25 1.2353-1.25-.5531-1.25-1.2353.5596-1.2353 1.25-1.2353zm6.875 23.4706h-.625c-1.25 0-1.25-.553-1.25-1.2353v-13.6265c-1.1403 1.5135-2.9484 2.5088-5 2.5088s-3.8597-.9953-5-2.5088v13.6265c0 .6823-.5596 1.2353-1.25 1.2353h-.625c-.3438 0-.625.2779-.625.6176s.2812.6176.625.6176h13.75c.3438 0 .625-.278.625-.6176s-.2812-.6176-.625-.6176z" fill="#000000"/></svg>