<svg xmlns="http://www.w3.org/2000/svg" height="56" width="36" viewBox="0 0 36 56"><path d="m0 0h36v56h-36z" fill="none"/><path d="m16.8105 39.1182v.0166c0 2.8359-1.4736 4.6641-3.8672 4.6641-2.3848 0-3.8828-1.8047-3.8828-4.6641v-.0166c0-2.8604 1.5068-4.6562 3.8828-4.6562 2.3691 0 3.8672 1.8047 3.8672 4.6562zm-2.0791-8.7452c.6328 0 1.0977-.4141 1.0977-.9609v-.3633l-1.0352.0664c-.5859.0352-.8516.2461-.8516.6289v.0078c0 .3906.332.6211.7891.6211zm20.2686 5.127c0 9.4869-7.5131 17-16.9999 17s-17.0001-7.5131-17.0001-17 7.5133-17 17.0001-17 16.9999 7.5132 16.9999 17zm-14.5-6.6543c0 1.3711.7578 2.2148 1.9961 2.2148 1.0508 0 1.6562-.5664 1.8086-1.3906l.0078-.0352h-.8125l-.0078.0195c-.1367.457-.4648.6992-.9961.6992-.6992 0-1.1328-.5703-1.1328-1.5078v-.0078c0-.9141.4258-1.4766 1.1328-1.4766.5625 0 .9062.3125 1 .7305l.0039.0117.8125-.0039v-.0195c-.1172-.8242-.7539-1.4258-1.8203-1.4258-1.2383 0-1.9922.8398-1.9922 2.1836v.0078zm-7.4014.9414c0 .7695.5977 1.2617 1.4062 1.2617.5625 0 1.0078-.2422 1.2578-.6719h.0664v.6016h.8398v-2.9023c0-.8906-.6016-1.4219-1.668-1.4219-.9648 0-1.6328.4648-1.7344 1.1602l-.0039.0273h.8164l.0039-.0156c.1016-.3008.4102-.4727.8789-.4727.5742 0 .8672.2578.8672.7227v.375l-1.1484.0664c-1.0117.0625-1.582.5039-1.582 1.2617v.0078zm-6.3359-3.0508 1.1719 4.2422h.8633l.875-3.1641h.0664l.8789 3.1641h.8711l1.168-4.2422h-.8398l-.7578 3.2734h-.0664l-.875-3.2734h-.8047l-.875 3.2734h-.0625l-.7617-3.2734h-.8516zm11.5303 12.3819c0-3.6816-2.0625-5.9941-5.3496-5.9941-3.2949 0-5.3652 2.3125-5.3652 5.9941v.0166c0 3.6895 2.0625 6.002 5.3652 6.002 3.2959 0 5.3496-2.3125 5.3496-6.002zm1.0527-8.1123c.1641 0 .3203-.0195.457-.043v-.6758c-.1172.0117-.1914.0156-.3203.0156-.418 0-.5898-.1875-.5898-.6445v-2.2539h.9102v-.668h-.9102v-1.0703h-.8633v1.0703h-.6641v.668h.6641v2.457c0 .8164.3828 1.1445 1.3164 1.1445zm8.6348 10.7548c0-1.7725-.999-2.7393-3.3838-3.2627l-1.2891-.2822c-1.5146-.3301-2.2158-.9268-2.2158-1.877v-.0078c0-1.1201 1.0156-1.8613 2.5703-1.8691 1.4746 0 2.4658.7002 2.6426 1.8848l.0166.1133h1.4502l-.0078-.1211c-.1289-1.9014-1.7891-3.2148-4.0605-3.2148-2.3936 0-4.085 1.3379-4.0938 3.2471v.0078c0 1.7002 1.0645 2.7236 3.3359 3.2227l1.2891.2822c1.5957.3545 2.2637.9268 2.2637 1.9502v.0078c0 1.2002-1.0547 1.957-2.7305 1.957-1.6846 0-2.8125-.7168-2.9814-1.8848l-.0166-.1133h-1.4492l.0078.1133c.1445 1.9902 1.8447 3.2227 4.3584 3.2227 2.6592 0 4.2939-1.3047 4.2939-3.3672v-.0088zm.9414-13.5283c0-1.0117-.5234-1.5781-1.4727-1.5781-.6172 0-1.0234.2734-1.2305.7266h-.0625v-2.3086h-.8477v5.9062h.8477v-2.4883c0-.6836.3867-1.1094 1.0078-1.1094s.9141.3477.9141 1.0508v2.5469h.8438z" fill="#000000"/></svg>