<svg xmlns="http://www.w3.org/2000/svg" height="56" width="28" viewBox="0 0 28 56"><path d="m0 0h28v56h-28z" fill="none"/><path d="m7.7099 47.2883h10.9973c-.0403.7776-.0824 1.5386-.1245 2.2368h-10.7485c-.042-.6979-.0839-1.4589-.1243-2.2368zm.196 3.3608c.0366.5376.0723.9988.1056 1.3508h10.3934c.0334-.3521.0691-.8134.1057-1.3508.0084-.1227.0168-.244.0253-.374h-10.655c.0084.1302.0167.2512.025.374zm19.4048-21.4973v.9441c.398.1326.6893.4946.6893.9349v4.5067c0 .4403-.2913.8023-.6893.9349v.7175l-.5042.0277c-.4763.0512-.5943.3391-.5943.3391-.0429.0533-.1867.4308-.1867.4308v-.0107c-.2683.9632-.7385 2.0395-1.5376 3.0233-.0561.1184-.3238.6323-1.0872 1.4521-.1668.179-.2816.4037-.3184.6449-.0188.1224-.038.2595-.0563.3945-.049.3624-.0901.7086-.0901.7086s-.0016 1.4161-1.4995 1.5973h-.2074l-.127 4.2187c-.1137.2094-.1458.4984-.8967.4984h-.6716c.0946-1.3072.1863-2.9897.2689-4.7171.0108-.2287.0216-.4573.0321-.6866.0163-.3527.0321-.7043.0476-1.0536.0047-.109.0096-.2172.0142-.3255-.3216.0713-.6581.133-1.0141.1831-.002.047-.0042.0949-.0064.1424-.0044.1021-.0088.2017-.0136.3059-.0112.2447-.0227.4942-.0346.7477-.0107.2265-.0217.456-.033.6866-.0059.1215-.012.2432-.0181.3652h-11.1428c-.0061-.122-.0123-.2438-.0181-.3652-.0112-.2305-.0222-.4601-.0328-.6866-.012-.2533-.0235-.5031-.0346-.7477-.0048-.1044-.0091-.2036-.0137-.3059-.0017-.0403-.0034-.0805-.0053-.1203-.3509-.05-.6888-.1132-1.0143-.189.0045.1028.0089.2059.0136.3093.0152.3494.0311.701.0473 1.0536.0105.2293.0213.4579.0321.6866.0824 1.7284.1738 3.4104.2682 4.7171h-.4601c-.7509 0-.7829-.289-.8967-.4984l-.127-4.2187h-.2613c-1.4979-.1813-1.4995-1.5973-1.4995-1.5973s-.1482-1.2461-.2166-1.484c-.048-.1674-.5877-.7003-.9062-1.0047-.1343-.1283-.2334-.22-.2334-.22l.04.0192c-1.5521-1.5494-2.3155-3.6522-2.3155-5.9339v-13.9266c0-2.5024.9035-4.746 2.6593-6.3065.314-.3429.627-.7044.6601-.8195.0684-.2379.2166-1.484.2166-1.484s.0086-1.3685 1.4401-1.5829c.0154-2.3591.0931-5.3841.4119-5.4427h15.6084c.3185.0585.3821 3.0799.3875 5.4388 1.4494.2057 1.4563 1.5868 1.4563 1.5868s.0411.3463.09.7086c.0184.135.0376.2721.0564.3945.0368.2412.1516.4658.3184.6449.8756.9404 1.0838 1.2665 1.0838 1.2665l-.0195-.0122c.773.8838 1.3342 1.9228 1.6587 3.0715.0072.019.1424.3725.1842.4244 0 0 .118.2879.5943.3391l.5042.0277v1.6691c.398.1326.6893.4946.6893.9349v4.0563c0 .4403-.2913.8023-.6893.9349v1.6517zm-21.9704 14.8921h-.0385c-.2914 0-.53.2375-.53.5279s.2385.5278.53.5278h.0701zm19.523-22.4529c0-4.2817-3.057-7.0483-7.7881-7.0483h-7.7843c-4.8019 0-7.7849 2.7007-7.7849 7.0483v13.9551c0 4.3972 3.0036 7.0225 8.0347 7.0225.155 0 .3128-.0025.4722-.0074l.0281-.0009.0279.0002 5.6995.0341c2.6618 0 4.4242-.3154 5.7055-1.0225 3.2259-1.7804 3.3893-5.332 3.3893-6.0259v-13.9551zm-3.4796-9.4335c-.001.3856-.0031.7137-.0054.9684.19-.0805.3239-.2684.3239-.486 0-.2153-.1318-.4005-.3185-.4824zm-16.6948.4824c0 .2009.1181.3707.2851.4599-.0011-.246-.0016-.5565-.0011-.9191-.1662.0894-.284.2587-.284.4592zm17.0963 31.9319c0-.2812-.2253-.5084-.5041-.5226l-.0315 1.0505h.0056c.2914 0 .53-.2375.53-.5278z" fill="#000000"/></svg>