<?xml version="1.0" encoding="UTF-8"?>
<svg width="60px" height="60px" viewBox="0 0 60 60" version="1.1" xmlns="http://www.w3.org/2000/svg" xmlns:xlink="http://www.w3.org/1999/xlink">
    <title>icon-apple-account-password-open</title>
    <g id="icon-apple-account-password-open" stroke="none" fill="none" fill-rule="nonzero">
        <path d="M4.85205078,39.9316406 C4.85205078,44.269043 7.23876953,46.5639648 11.5761719,46.5639648 L47.9736328,46.5639648 C52.3110352,46.5639648 54.6977539,44.269043 54.6977539,39.9316406 L54.6977539,20.9296875 C54.6977539,16.5922852 52.3110352,14.3203125 47.9736328,14.3203125 L11.5761719,14.3203125 C7.23876953,14.3203125 4.85205078,16.5922852 4.85205078,20.9296875 L4.85205078,39.9316406 Z M8.61572266,40.0693359 L8.61572266,20.7919922 C8.61572266,18.887207 9.69433594,17.8085938 11.5991211,17.8085938 L47.9506836,17.8085938 C49.8554688,17.8085938 50.9111328,18.887207 50.9111328,20.7919922 L50.9111328,40.0693359 C50.9111328,41.9511719 49.8554688,43.0297852 47.9506836,43.0297852 L11.5991211,43.0297852 C9.69433594,43.0297852 8.61572266,41.9511719 8.61572266,40.0693359 Z M19.0805664,33.7583008 C20.9394531,33.7583008 22.4311523,32.2436523 22.4311523,30.4077148 C22.4311523,28.5717773 20.9165039,27.0800781 19.0805664,27.0800781 C17.2446289,27.0800781 15.7529297,28.5717773 15.7529297,30.4077148 C15.7529297,32.2436523 17.2446289,33.7583008 19.0805664,33.7583008 Z M29.7978516,33.7583008 C31.6337891,33.7583008 33.1484375,32.2436523 33.1484375,30.4077148 C33.1484375,28.5717773 31.6337891,27.0800781 29.7978516,27.0800781 C27.9619141,27.0800781 26.4702148,28.5717773 26.4702148,30.4077148 C26.4702148,32.2436523 27.9619141,33.7583008 29.7978516,33.7583008 Z M40.5151367,33.7583008 C42.3510742,33.7583008 43.8427734,32.2436523 43.8427734,30.4077148 C43.8427734,28.5717773 42.3510742,27.0800781 40.5151367,27.0800781 C38.6791992,27.0800781 37.1875,28.5717773 37.1875,30.4077148 C37.1875,32.2436523 38.6791992,33.7583008 40.5151367,33.7583008 Z" id="Shape" fill="#0066CC"></path>
    </g>
</svg>