<svg height="56" viewBox="0 0 35 56" width="35" xmlns="http://www.w3.org/2000/svg"><path d="m0 0h35v56h-35z" fill="none"/><path d="m20.3922 34.8742h2.2789v2.1762h-2.2789v6.3157c0 .9498.3883 1.3551 1.2984 1.3551.2382 0 .64-.033.7947-.0552l.1745-.0251v2.1824l-.1216.0253c-.2974.0621-.8651.1054-1.3804.1054-2.4356 0-3.4291-.9705-3.4291-3.3499v-6.5538h-1.7459v-2.1762h1.7459v-2.8343h2.6636v2.8343zm-7.9354 4.1749c-.0201-2.1464 1.7519-3.178 1.8325-3.2277-1.0059-1.4814-2.5596-1.6448-3.1069-1.6854-1.3965-.1033-2.5812.78-3.2422.78-.6707 0-1.7045-.7577-2.8009-.737-1.4396.0211-2.7663.8376-3.5086 2.1266-1.4952 2.5953-.3817 6.4409 1.0747 8.5469.7124 1.0291 1.5621 2.1887 2.6781 2.1464 1.0742-.0422 1.4806-.6948 2.7791-.6948 1.2977 0 1.6638.6948 2.7997.674 1.1562-.0215 1.8889-1.0504 2.596-2.0851.8184-1.1944 1.1546-2.351 1.1746-2.412-.0256-.0097-2.2538-.8646-2.2761-3.4318zm-2.1361-6.3034c.5931-.7167.9921-1.715.8823-2.7079-.8536.0339-1.886.5686-2.4982 1.2849-.5483.6346-1.0298 1.6509-.899 2.6235.9514.0735 1.9224-.4832 2.515-1.2005zm21.9136 2.1285-2.8071 9.0763-2.807-9.0763h-2.811l4.2476 11.9871h2.7184l4.2248-11.9871z"/></svg>