<?xml version="1.0" encoding="UTF-8"?>
<svg width="60px" height="60px" viewBox="0 0 60 60" version="1.1" xmlns="http://www.w3.org/2000/svg" xmlns:xlink="http://www.w3.org/1999/xlink">
    <title>icon-calendar-subscription</title>
    <g id="icon-calendar-subscription" stroke="none" fill="none" fill-rule="evenodd" stroke-width="1">
        <g id="calendar-(Colored)-Copy" transform="translate(6.5889, 7.6978)">
            <path d="M40.156267,0 C45.1698318,0 47.6766142,2.4829083 47.6766142,7.42485079 L47.6766142,36.5751492 C47.6766142,41.5170917 45.1698318,44 40.156267,44 L7.52034726,44 C2.53065654,44 0,41.5170917 0,36.5751492 L0,7.42485079 C0,2.4829083 2.53065654,0 7.52034726,0 Z M40.4427564,10.9582203 L7.20998372,10.9582203 C5.08518719,10.9582203 3.9153554,12.104178 3.9153554,14.3005969 L3.9153554,36.742268 C3.9153554,38.962561 5.08518719,40.0846446 7.20998372,40.0846446 L40.4427564,40.0846446 C42.5436788,40.0846446 43.7612588,38.962561 43.7612588,36.742268 L43.7612588,14.3005969 C43.7612588,12.104178 42.5436788,10.9582203 40.4427564,10.9582203 Z" id="Combined-Shape" fill="#FF383C" fill-rule="nonzero"></path>
            <g id="Days" transform="translate(10.1465, 15.9479)">
                <path d="M9.04829083,3.55724362 L10.4568638,3.55724362 C11.2924579,3.55724362 11.5550733,3.31850244 11.5550733,2.4829083 L11.5550733,1.07433532 C11.5550733,0.238741183 11.2924579,0 10.4568638,0 L9.04829083,0 C8.21269669,0 7.92620727,0.238741183 7.92620727,1.07433532 L7.92620727,2.4829083 C7.92620727,3.31850244 8.21269669,3.55724362 9.04829083,3.55724362 Z" id="Path" fill="#8E8E93"></path>
                <path d="M16.9744981,3.55724362 L18.359197,3.55724362 C19.2186652,3.55724362 19.4812805,3.31850244 19.4812805,2.4829083 L19.4812805,1.07433532 C19.4812805,0.238741183 19.2186652,0 18.359197,0 L16.9744981,0 C16.1150298,0 15.8524145,0.238741183 15.8524145,1.07433532 L15.8524145,2.4829083 C15.8524145,3.31850244 16.1150298,3.55724362 16.9744981,3.55724362 Z" id="Path" fill="#8E8E93"></path>
                <path d="M24.8768313,3.55724362 L26.2854042,3.55724362 C27.1209984,3.55724362 27.4074878,3.31850244 27.4074878,2.4829083 L27.4074878,1.07433532 C27.4074878,0.238741183 27.1209984,0 26.2854042,0 L24.8768313,0 C24.0412371,0 23.7786218,0.238741183 23.7786218,1.07433532 L23.7786218,2.4829083 C23.7786218,3.31850244 24.0412371,3.55724362 24.8768313,3.55724362 Z" id="Path" fill="#8E8E93"></path>
                <path d="M1.12208356,11.3640803 L2.53065654,11.3640803 C3.36625068,11.3640803 3.6527401,11.1253391 3.6527401,10.289745 L3.6527401,8.881172 C3.6527401,8.04557786 3.36625068,7.78296256 2.53065654,7.78296256 L1.12208356,7.78296256 C0.286489419,7.78296256 0,8.04557786 0,8.881172 L0,10.289745 C0,11.1253391 0.286489419,11.3640803 1.12208356,11.3640803 Z" id="Path" fill="#8E8E93"></path>
                <path d="M9.04829083,11.3640803 L10.4568638,11.3640803 C11.2924579,11.3640803 11.5550733,11.1253391 11.5550733,10.289745 L11.5550733,8.881172 C11.5550733,8.04557786 11.2924579,7.78296256 10.4568638,7.78296256 L9.04829083,7.78296256 C8.21269669,7.78296256 7.92620727,8.04557786 7.92620727,8.881172 L7.92620727,10.289745 C7.92620727,11.1253391 8.21269669,11.3640803 9.04829083,11.3640803 Z" id="Path" fill="#8E8E93"></path>
                <path d="M16.9744981,11.3640803 L18.359197,11.3640803 C19.2186652,11.3640803 19.4812805,11.1253391 19.4812805,10.289745 L19.4812805,8.881172 C19.4812805,8.04557786 19.2186652,7.78296256 18.359197,7.78296256 L16.9744981,7.78296256 C16.1150298,7.78296256 15.8524145,8.04557786 15.8524145,8.881172 L15.8524145,10.289745 C15.8524145,11.1253391 16.1150298,11.3640803 16.9744981,11.3640803 Z" id="Path" fill="#8E8E93"></path>
                <path d="M24.8768313,11.3640803 L26.2854042,11.3640803 C27.1209984,11.3640803 27.4074878,11.1253391 27.4074878,10.289745 L27.4074878,8.881172 C27.4074878,8.04557786 27.1209984,7.78296256 26.2854042,7.78296256 L24.8768313,7.78296256 C24.0412371,7.78296256 23.7786218,8.04557786 23.7786218,8.881172 L23.7786218,10.289745 C23.7786218,11.1253391 24.0412371,11.3640803 24.8768313,11.3640803 Z" id="Path" fill="#8E8E93"></path>
                <path d="M1.12208356,19.170917 L2.53065654,19.170917 C3.36625068,19.170917 3.6527401,18.9083017 3.6527401,18.0727075 L3.6527401,16.6880087 C3.6527401,15.8524145 3.36625068,15.5897992 2.53065654,15.5897992 L1.12208356,15.5897992 C0.286489419,15.5897992 0,15.8524145 0,16.6880087 L0,18.0727075 C0,18.9083017 0.286489419,19.170917 1.12208356,19.170917 Z" id="Path" fill="#8E8E93"></path>
                <path d="M9.04829083,19.170917 L10.4568638,19.170917 C11.2924579,19.170917 11.5550733,18.9083017 11.5550733,18.0727075 L11.5550733,16.6880087 C11.5550733,15.8524145 11.2924579,15.5897992 10.4568638,15.5897992 L9.04829083,15.5897992 C8.21269669,15.5897992 7.92620727,15.8524145 7.92620727,16.6880087 L7.92620727,18.0727075 C7.92620727,18.9083017 8.21269669,19.170917 9.04829083,19.170917 Z" id="Path" fill="#8E8E93"></path>
                <path d="M16.9744981,19.170917 L18.359197,19.170917 C19.2186652,19.170917 19.4812805,18.9083017 19.4812805,18.0727075 L19.4812805,16.6880087 C19.4812805,15.8524145 19.2186652,15.5897992 18.359197,15.5897992 L16.9744981,15.5897992 C16.1150298,15.5897992 15.8524145,15.8524145 15.8524145,16.6880087 L15.8524145,18.0727075 C15.8524145,18.9083017 16.1150298,19.170917 16.9744981,19.170917 Z" id="Last" fill="#FF383C"></path>
            </g>
        </g>
    </g>
</svg>