<?xml version="1.0" encoding="UTF-8"?>
<svg width="60px" height="60px" viewBox="0 0 60 60" version="1.1" xmlns="http://www.w3.org/2000/svg" xmlns:xlink="http://www.w3.org/1999/xlink">
    <title>icon-receipt-purchase-history</title>
    <g id="icon-receipt-purchase-history" stroke="none" fill="none" fill-rule="evenodd" stroke-width="1">
        <g id="receipt-(Colored)-Copy" transform="translate(11, 5)" fill="#34C759">
            <path d="M9.5234375,13.0273438 L20.7988281,13.0273438 C21.6074219,13.0273438 22.2138672,12.4433594 22.2138672,11.6572266 C22.2138672,10.8710938 21.6074219,10.2646484 20.7988281,10.2646484 L9.5234375,10.2646484 C8.73730469,10.2646484 8.13085938,10.8710938 8.13085938,11.6572266 C8.13085938,12.4433594 8.73730469,13.0273438 9.5234375,13.0273438 Z M26.3691406,13.0273438 L28.2558594,13.0273438 C29.0869141,13.0273438 29.6708984,12.4433594 29.6708984,11.6572266 C29.6708984,10.8710938 29.0869141,10.2646484 28.2558594,10.2646484 L26.3691406,10.2646484 C25.5830078,10.2646484 24.9765625,10.8710938 24.9765625,11.6572266 C24.9765625,12.4433594 25.5830078,13.0273438 26.3691406,13.0273438 Z M9.5234375,21.0458984 L20.7988281,21.0458984 C21.6074219,21.0458984 22.2138672,20.4394531 22.2138672,19.6757812 C22.2138672,18.8896484 21.6074219,18.2607422 20.7988281,18.2607422 L9.5234375,18.2607422 C8.73730469,18.2607422 8.13085938,18.8896484 8.13085938,19.6757812 C8.13085938,20.4394531 8.73730469,21.0458984 9.5234375,21.0458984 Z M26.3691406,21.0458984 L28.2558594,21.0458984 C29.0869141,21.0458984 29.6708984,20.4394531 29.6708984,19.6757812 C29.6708984,18.8896484 29.0869141,18.2607422 28.2558594,18.2607422 L26.3691406,18.2607422 C25.5830078,18.2607422 24.9765625,18.8896484 24.9765625,19.6757812 C24.9765625,20.4394531 25.5830078,21.0458984 26.3691406,21.0458984 Z M9.5234375,28.8847656 L20.8212891,28.8847656 C21.6298828,28.8847656 22.2363281,28.3007812 22.2363281,27.5371094 C22.2363281,26.7509766 21.6298828,26.1220703 20.8212891,26.1220703 L9.5234375,26.1220703 C8.73730469,26.1220703 8.13085938,26.7509766 8.13085938,27.5371094 C8.13085938,28.3007812 8.73730469,28.8847656 9.5234375,28.8847656 Z M26.3466797,28.8847656 L28.2558594,28.8847656 C29.0869141,28.8847656 29.6708984,28.3007812 29.6708984,27.5371094 C29.6708984,26.7509766 29.0869141,26.1220703 28.2558594,26.1220703 L26.3466797,26.1220703 C25.5605469,26.1220703 24.9541016,26.7509766 24.9541016,27.5371094 C24.9541016,28.3007812 25.5605469,28.8847656 26.3466797,28.8847656 Z M9.5234375,36.9033203 L20.8212891,36.9033203 C21.6298828,36.9033203 22.2363281,36.3193359 22.2363281,35.5332031 C22.2363281,34.7470703 21.6298828,34.140625 20.8212891,34.140625 L9.5234375,34.140625 C8.73730469,34.140625 8.13085938,34.7470703 8.13085938,35.5332031 C8.13085938,36.3193359 8.73730469,36.9033203 9.5234375,36.9033203 Z M26.3466797,36.9033203 L28.2558594,36.9033203 C29.0869141,36.9033203 29.6708984,36.3193359 29.6708984,35.5332031 C29.6708984,34.7470703 29.0869141,34.140625 28.2558594,34.140625 L26.3466797,34.140625 C25.5605469,34.140625 24.9541016,34.7470703 24.9541016,35.5332031 C24.9541016,36.3193359 25.5605469,36.9033203 26.3466797,36.9033203 Z" id="List" fill-rule="nonzero" opacity="0.5"></path>
            <path d="M30.7714844,7.10542736e-15 C35.4882813,7.10542736e-15 37.8466797,2.3359375 37.8466797,7.0078125 L37.8466797,46.2695313 C37.8466797,48.6728516 35.2636719,49.8857422 32.9726563,48.3359375 L30.2548828,46.5615234 L27.2226562,48.5830078 C26.6386719,48.9873047 26.2568359,48.9873047 25.6503906,48.5830078 L22.6855469,46.5615234 L19.6982422,48.5830078 C19.1367188,48.9648438 18.6425781,48.9648438 18.1035156,48.5830078 L15.1162109,46.5615234 L12.1513672,48.5830078 C11.5898438,48.9648438 11.1181641,48.9423828 10.5791016,48.5830078 L7.59179687,46.5839844 L4.87402344,48.3359375 C2.58300781,49.8857422 0,48.6728516 0,46.2695313 L0,7.0078125 C0,2.3359375 2.35839844,7.10542736e-15 7.07519531,7.10542736e-15 Z M30.7041016,3.68359375 L7.14257813,3.68359375 C4.91894531,3.68359375 3.68359375,4.87402344 3.68359375,7.1875 L3.68359375,44.9443359 L6.80566406,42.9003906 C7.32226563,42.5410156 7.81640625,42.5185547 8.35546875,42.9003906 L11.3652344,44.9443359 L14.3300781,42.9003906 C14.8691406,42.5185547 15.3632812,42.5185547 15.8798828,42.9003906 L18.9121094,44.9443359 L21.9443359,42.9003906 C22.4609375,42.5185547 22.9550781,42.5185547 23.4941406,42.9003906 L26.4365234,44.9443359 L29.4462891,42.9003906 C29.9853516,42.5185547 30.4794922,42.5410156 30.9960938,42.9003906 L34.140625,44.9443359 L34.1630859,7.1875 C34.1630859,4.87402344 32.9277344,3.68359375 30.7041016,3.68359375 Z" id="Outline"></path>
        </g>
    </g>
</svg>